<svg xmlns="http://www.w3.org/2000/svg" xmlns:xlink="http://www.w3.org/1999/xlink" width="500" zoomAndPan="magnify" viewBox="0 0 375 374.999991" height="500" preserveAspectRatio="xMidYMid meet" version="1.0"><defs><g/><clipPath id="179635e5a5"><path d="M 319.382812 37.144531 L 342.632812 37.144531 L 342.632812 335.644531 L 319.382812 335.644531 Z M 319.382812 37.144531 " clip-rule="nonzero"/></clipPath><clipPath id="9dc2c3be9f"><path d="M 44.335938 312.542969 L 342.835938 312.542969 L 342.835938 335.792969 L 44.335938 335.792969 Z M 44.335938 312.542969 " clip-rule="nonzero"/></clipPath><clipPath id="ce3f4644ff"><path d="M 39.351562 37.5 L 337.851562 37.5 L 337.851562 60.75 L 39.351562 60.75 Z M 39.351562 37.5 " clip-rule="nonzero"/></clipPath><clipPath id="a516b54087"><path d="M 37.503906 37.144531 L 60.753906 37.144531 L 60.753906 335.644531 L 37.503906 335.644531 Z M 37.503906 37.144531 " clip-rule="nonzero"/></clipPath><clipPath id="73457df360"><path d="M 37.5 37.5 L 251.234375 37.5 L 251.234375 60.605469 L 37.5 60.605469 Z M 37.5 37.5 " clip-rule="nonzero"/></clipPath><clipPath id="ded666b836"><path d="M 37.5 312.542969 L 135.160156 312.542969 L 135.160156 335.648438 L 37.5 335.648438 Z M 37.5 312.542969 " clip-rule="nonzero"/></clipPath></defs><g clip-path="url(#179635e5a5)"><path fill="#003366" d="M 319.464844 335.644531 L 319.464844 37.496094 L 342.402344 37.496094 L 342.402344 335.644531 Z M 319.464844 335.644531 " fill-opacity="1" fill-rule="nonzero"/></g><g clip-path="url(#9dc2c3be9f)"><path fill="#003366" d="M 44.335938 312.625 L 342.484375 312.625 L 342.484375 335.558594 L 44.335938 335.558594 Z M 44.335938 312.625 " fill-opacity="1" fill-rule="nonzero"/></g><g clip-path="url(#ce3f4644ff)"><path fill="#003366" d="M 39.351562 37.582031 L 337.5 37.582031 L 337.5 60.515625 L 39.351562 60.515625 Z M 39.351562 37.582031 " fill-opacity="1" fill-rule="nonzero"/></g><g clip-path="url(#a516b54087)"><path fill="#d9d9d9" d="M 37.585938 335.644531 L 37.585938 37.496094 L 60.519531 37.496094 L 60.519531 335.644531 Z M 37.585938 335.644531 " fill-opacity="1" fill-rule="nonzero"/></g><g clip-path="url(#73457df360)"><path fill="#d9d9d9" d="M 37.5 37.5 L 251.234375 37.5 L 251.234375 60.605469 L 37.5 60.605469 Z M 37.5 37.5 " fill-opacity="1" fill-rule="nonzero"/></g><g clip-path="url(#ded666b836)"><path fill="#d9d9d9" d="M 37.5 312.542969 L 135.160156 312.542969 L 135.160156 335.648438 L 37.5 335.648438 Z M 37.5 312.542969 " fill-opacity="1" fill-rule="nonzero"/></g><g fill="#d9d9d9" fill-opacity="1"><g transform="translate(76.880858, 241.42467)"><g><path d="M 95.828125 0 L 75.0625 0 L 67.546875 -23.015625 L 29.296875 -23.015625 L 21.796875 0 L 1.5 0 L 36 -99.859375 L 61.34375 -99.859375 Z M 47.46875 -79.03125 L 34.625 -39.625 L 62.09375 -39.625 L 49.1875 -79.03125 Z M 47.46875 -79.03125 "/></g></g></g><g fill="#003366" fill-opacity="1"><g transform="translate(174.216789, 241.42467)"><g><path d="M 31.078125 0 L 12.984375 0 L 12.984375 -99.859375 L 38.796875 -99.859375 L 64.078125 -26.4375 L 65.5 -26.4375 L 90.640625 -99.859375 L 115.84375 -99.859375 L 115.84375 0 L 97.125 0 L 97.125 -65.984375 L 95.421875 -66.25 L 72.34375 0 L 55.875 0 L 32.78125 -66.25 L 31.078125 -65.984375 Z M 31.078125 0 "/></g></g></g></svg>